<svg width="122" height="40" viewBox="0 0 122 40" fill="none" xmlns="http://www.w3.org/2000/svg">
<path d="M11.5594 1.54182C11.7835 0.98372 12.5736 0.98372 12.7977 1.54182L15.1716 7.4534C15.267 7.69106 15.4901 7.85312 15.7456 7.87044L22.1014 8.3014C22.7015 8.34209 22.9456 9.09349 22.4841 9.4791L17.5954 13.5636C17.3989 13.7278 17.3137 13.99 17.3762 14.2384L18.9304 20.4163C19.0771 20.9996 18.4379 21.464 17.9286 21.1442L12.5333 17.757C12.3164 17.6208 12.0407 17.6208 11.8238 17.757L6.42848 21.1442C5.91912 21.464 5.27994 20.9996 5.42667 20.4163L6.98086 14.2384C7.04334 13.99 6.95814 13.7278 6.76161 13.5636L1.87295 9.4791C1.41142 9.09349 1.65556 8.34209 2.2556 8.3014L8.61143 7.87044C8.86695 7.85312 9.09001 7.69106 9.18544 7.4534L11.5594 1.54182Z" fill="#EFBA0F"/>
<path d="M35.9129 1.54182C36.137 0.98372 36.9271 0.98372 37.1512 1.54182L39.5251 7.4534C39.6206 7.69106 39.8436 7.85312 40.0991 7.87044L46.455 8.3014C47.055 8.34209 47.2991 9.09349 46.8376 9.4791L41.949 13.5636C41.7524 13.7278 41.6672 13.99 41.7297 14.2384L43.2839 20.4163C43.4306 20.9996 42.7914 21.464 42.2821 21.1442L36.8868 17.757C36.6699 17.6208 36.3942 17.6208 36.1773 17.757L30.782 21.1442C30.2726 21.464 29.6335 20.9996 29.7802 20.4163L31.3344 14.2384C31.3969 13.99 31.3117 13.7278 31.1151 13.5636L26.2265 9.4791C25.7649 9.09349 26.0091 8.34209 26.6091 8.3014L32.9649 7.87044C33.2205 7.85312 33.4435 7.69106 33.539 7.4534L35.9129 1.54182Z" fill="#EFBA0F"/>
<path d="M108.971 1.54182C109.196 0.98372 109.986 0.98372 110.21 1.54182L112.584 7.4534C112.679 7.69106 112.902 7.85312 113.158 7.87044L119.514 8.3014C120.114 8.34209 120.358 9.09349 119.896 9.4791L115.008 13.5636C114.811 13.7278 114.726 13.99 114.788 14.2384L116.342 20.4163C116.489 20.9996 115.85 21.464 115.341 21.1442L109.945 17.757C109.728 17.6208 109.453 17.6208 109.236 17.757L103.841 21.1442C103.331 21.464 102.692 20.9996 102.839 20.4163L104.393 14.2384C104.455 13.99 104.37 13.7278 104.174 13.5636L99.2851 9.4791C98.8235 9.09349 99.0677 8.34209 99.6677 8.3014L106.024 7.87044C106.279 7.85312 106.502 7.69106 106.598 7.4534L108.971 1.54182Z" fill="#EFBA0F"/>
<path d="M60.2664 1.54182C60.4905 0.98372 61.2806 0.98372 61.5047 1.54182L63.8786 7.4534C63.9741 7.69106 64.1971 7.85312 64.4526 7.87044L70.8085 8.3014C71.4085 8.34209 71.6527 9.09349 71.1911 9.4791L66.3025 13.5636C66.1059 13.7278 66.0207 13.99 66.0832 14.2384L67.6374 20.4163C67.7841 20.9996 67.145 21.464 66.6356 21.1442L61.2403 17.757C61.0234 17.6208 60.7477 17.6208 60.5308 17.757L55.1355 21.1442C54.6262 21.464 53.987 20.9996 54.1337 20.4163L55.6879 14.2384C55.7504 13.99 55.6652 13.7278 55.4686 13.5636L50.58 9.4791C50.1184 9.09349 50.3626 8.34209 50.9626 8.3014L57.3185 7.87044C57.574 7.85312 57.797 7.69106 57.8925 7.4534L60.2664 1.54182Z" fill="#EFBA0F"/>
<path d="M84.618 1.54182C84.8421 0.98372 85.6321 0.98372 85.8563 1.54182L88.2302 7.4534C88.3256 7.69106 88.5487 7.85312 88.8042 7.87044L95.16 8.3014C95.7601 8.34209 96.0042 9.09349 95.5427 9.4791L90.654 13.5636C90.4575 13.7278 90.3723 13.99 90.4348 14.2384L91.989 20.4163C92.1357 20.9996 91.4965 21.464 90.9872 21.1442L85.5919 17.757C85.375 17.6208 85.0993 17.6208 84.8824 17.757L79.4871 21.1442C78.9777 21.464 78.3385 20.9996 78.4853 20.4163L80.0395 14.2384C80.1019 13.99 80.0167 13.7278 79.8202 13.5636L74.9315 9.4791C74.47 9.09349 74.7142 8.34209 75.3142 8.3014L81.67 7.87044C81.9255 7.85312 82.1486 7.69106 82.244 7.4534L84.618 1.54182Z" fill="#EFBA0F"/>
<path d="M49.0762 38.6888V31.1435C49.0759 31.1343 49.0774 31.1252 49.0807 31.1166C49.084 31.1081 49.0889 31.1003 49.0953 31.0938C49.1016 31.0874 49.1091 31.0822 49.1174 31.0789C49.1257 31.0755 49.1347 31.074 49.1435 31.0743H50.554C50.572 31.0743 50.5891 31.0816 50.6017 31.0945C50.6143 31.1075 50.6214 31.1251 50.6214 31.1435V33.8625H50.6432C50.8329 33.6302 51.0721 33.4459 51.3424 33.3239C51.6126 33.202 51.9066 33.1456 52.2015 33.1593C53.312 33.1593 53.6684 33.9049 53.6684 34.8938V38.6888C53.6684 38.7072 53.6614 38.7248 53.6487 38.7377C53.6361 38.7507 53.6189 38.758 53.6011 38.758H52.1906C52.1727 38.758 52.1556 38.7507 52.1429 38.7377C52.1303 38.7248 52.1232 38.7072 52.1232 38.6888V35.0344C52.1232 34.6058 51.6885 34.4741 51.4104 34.4741C51.1321 34.4741 50.6214 34.6616 50.6214 35.1974V38.6888C50.6214 38.7072 50.6143 38.7248 50.6017 38.7377C50.5891 38.7507 50.572 38.758 50.554 38.758H49.1435C49.1257 38.758 49.1085 38.7507 49.0959 38.7377C49.0833 38.7248 49.0762 38.7072 49.0762 38.6888Z" fill="white"/>
<path d="M60.3385 37.2001V34.5993H59.6865C59.6687 34.5993 59.6515 34.5921 59.6388 34.5791C59.6262 34.5661 59.6191 34.5485 59.6191 34.5302V33.597C59.6193 33.5827 59.6238 33.5688 59.6319 33.5572C59.6401 33.5456 59.6516 33.5369 59.6647 33.5323L60.5341 33.2711L60.997 31.7821C61.0016 31.7724 61.0083 31.7639 61.0166 31.7574C61.0248 31.7508 61.0346 31.7462 61.0448 31.7442H61.8055C61.8144 31.7438 61.8233 31.7455 61.8317 31.7488C61.84 31.7522 61.8475 31.7572 61.8538 31.7638C61.8601 31.7703 61.8651 31.778 61.8684 31.7866C61.8716 31.7951 61.8732 31.8042 61.8729 31.8134V33.2823H63.0139C63.0227 33.2823 63.0315 33.2841 63.0397 33.2875C63.0478 33.291 63.0553 33.2961 63.0615 33.3026C63.0678 33.309 63.0727 33.3166 63.0761 33.325C63.0795 33.3334 63.0813 33.3424 63.0813 33.3515V34.5436C63.0813 34.5526 63.0795 34.5614 63.0761 34.5697C63.0727 34.578 63.0677 34.5855 63.0614 34.5917C63.0551 34.5979 63.0477 34.6029 63.0395 34.6061C63.0313 34.6093 63.0226 34.6108 63.0139 34.6105H61.8729V37.0349C61.8729 37.2871 62.012 37.4412 62.3532 37.4412H63.0052C63.023 37.4412 63.0402 37.4484 63.0528 37.4614C63.0655 37.4744 63.0726 37.492 63.0726 37.5104C63.0726 37.5282 63.0726 38.3497 63.0726 38.5574C63.0723 38.5713 63.068 38.5849 63.0603 38.5964C63.0526 38.6079 63.0417 38.6168 63.0291 38.6221C62.6883 38.7833 62.3176 38.867 61.9424 38.8676C60.8058 38.8676 60.3385 38.1756 60.3385 37.2001Z" fill="white"/>
<path d="M82.4264 37.2012V34.6005H81.7744C81.7565 34.6005 81.7394 34.5932 81.7268 34.5802C81.7141 34.5672 81.707 34.5496 81.707 34.5312V33.5981C81.7072 33.5838 81.7117 33.5699 81.7198 33.5583C81.728 33.5467 81.7395 33.538 81.7527 33.5334L82.622 33.2722L83.0849 31.7833C83.0894 31.7697 83.0979 31.7579 83.1092 31.7495C83.1205 31.7411 83.134 31.7365 83.148 31.7364H83.9086C83.9175 31.736 83.9265 31.7376 83.9348 31.741C83.943 31.7444 83.9506 31.7494 83.957 31.7559C83.9633 31.7624 83.9682 31.7702 83.9715 31.7787C83.9748 31.7872 83.9763 31.7964 83.976 31.8055V33.2744H85.117C85.1258 33.2744 85.1346 33.2763 85.1428 33.2797C85.151 33.2832 85.1584 33.2883 85.1646 33.2947C85.1709 33.3012 85.1759 33.3088 85.1793 33.3172C85.1826 33.3256 85.1844 33.3345 85.1844 33.3436V34.5357C85.1844 34.5447 85.1826 34.5536 85.1792 34.5619C85.1758 34.5702 85.1708 34.5776 85.1645 34.5839C85.1582 34.5901 85.1508 34.595 85.1426 34.5983C85.1344 34.6015 85.1257 34.603 85.117 34.6027H83.976V37.0359C83.976 37.2882 84.1151 37.4423 84.4563 37.4423H85.1083C85.1262 37.4423 85.1433 37.4495 85.1559 37.4625C85.1686 37.4755 85.1757 37.4931 85.1757 37.5114C85.1757 37.5293 85.1757 38.3508 85.1757 38.5584C85.1754 38.5724 85.1711 38.586 85.1634 38.5975C85.1557 38.609 85.1448 38.6179 85.1322 38.6232C84.7914 38.7843 84.4207 38.8681 84.0455 38.8687C82.8937 38.8687 82.4264 38.1767 82.4264 37.2012Z" fill="white"/>
<path d="M64.0176 38.6873V33.3297C64.0176 33.3113 64.0247 33.2937 64.0373 33.2808C64.05 33.2677 64.0671 33.2604 64.085 33.2604H65.3585C65.3725 33.2606 65.386 33.2652 65.3973 33.2736C65.4086 33.282 65.4171 33.2938 65.4215 33.3073L65.5694 33.8521H65.5911C65.779 33.6199 66.0167 33.4357 66.2855 33.3136C66.5544 33.1917 66.8471 33.1352 67.1407 33.1488C67.8992 33.1488 68.2643 33.4993 68.4686 34.0418H68.5121C68.6894 33.7539 68.938 33.5196 69.2323 33.3627C69.5268 33.2058 69.8565 33.132 70.1877 33.1488C71.2983 33.1488 71.6547 33.8944 71.6547 34.8834V38.6784C71.6547 38.6967 71.6476 38.7144 71.6349 38.7273C71.6223 38.7403 71.6052 38.7476 71.5873 38.7476H70.1725C70.1546 38.7476 70.1375 38.7403 70.1248 38.7273C70.1122 38.7144 70.1051 38.6967 70.1051 38.6784V35.0575C70.1051 34.6289 69.7117 34.4637 69.4335 34.4637C69.1119 34.4637 68.6338 34.6736 68.612 35.1557V38.6873C68.6123 38.6965 68.6108 38.7056 68.6075 38.7141C68.6042 38.7227 68.5993 38.7304 68.5929 38.7369C68.5866 38.7434 68.5791 38.7485 68.5708 38.7519C68.5625 38.7553 68.5536 38.7568 68.5447 38.7565H67.1255C67.108 38.7559 67.0914 38.7484 67.0792 38.7355C67.0671 38.7226 67.0602 38.7053 67.0602 38.6873V35.0575C67.0602 34.6289 66.643 34.4637 66.3387 34.4637C66.1393 34.4624 65.9472 34.5409 65.8032 34.6826C65.6592 34.8243 65.5745 35.018 65.5672 35.2227V38.6873C65.5672 38.7053 65.5604 38.7226 65.5482 38.7355C65.536 38.7484 65.5195 38.7559 65.502 38.7565H64.0871C64.0781 38.7568 64.0691 38.7552 64.0607 38.7519C64.0522 38.7486 64.0445 38.7435 64.0381 38.7371C64.0316 38.7306 64.0265 38.7228 64.0229 38.7143C64.0194 38.7058 64.0176 38.6966 64.0176 38.6873Z" fill="white"/>
<path d="M72.5884 34.477V33.4813C72.589 33.4656 72.5947 33.4504 72.6045 33.4383C72.6143 33.4262 72.6278 33.4178 72.6427 33.4144C73.3215 33.2629 74.0129 33.1784 74.7074 33.1621C76.0744 33.1621 76.8807 33.5014 76.8807 35.0172V38.6917C76.8807 38.71 76.8737 38.7276 76.861 38.7406C76.8484 38.7536 76.8312 38.7608 76.8134 38.7608H75.4637C75.4491 38.7608 75.435 38.7556 75.4236 38.7464C75.4121 38.7371 75.4041 38.724 75.4007 38.7095L75.2551 38.167H75.3159C74.9313 38.7162 74.4205 38.8703 73.7946 38.8703C72.7905 38.8703 72.2559 38.0688 72.2559 37.1245C72.2559 35.6981 73.2708 35.4123 74.0293 35.4123H75.3333V35.0507C75.3333 34.6042 75.0073 34.5038 73.7685 34.5038C73.2447 34.5038 72.6818 34.5461 72.658 34.5461C72.6399 34.5462 72.6225 34.5389 72.6095 34.5261C72.5966 34.5131 72.589 34.4955 72.5884 34.477ZM75.3311 36.3879H74.4836C74.0337 36.3879 73.7424 36.5642 73.7424 37.0575C73.7424 37.5889 74.1141 37.7094 74.4705 37.7094C74.5863 37.7159 74.7022 37.6972 74.8105 37.6546C74.9188 37.612 75.0171 37.5464 75.0992 37.4622C75.1812 37.378 75.245 37.2769 75.2865 37.1657C75.328 37.0544 75.3461 36.9354 75.3398 36.8165V36.37L75.3311 36.3879Z" fill="white"/>
<path d="M77.7793 38.689V33.3314C77.7793 33.3134 77.7861 33.2961 77.7983 33.2832C77.8104 33.2703 77.827 33.2627 77.8445 33.2622H79.1051C79.1206 33.262 79.1358 33.2675 79.1477 33.2777C79.1597 33.2879 79.1676 33.3022 79.1703 33.318L79.3202 34.1507H79.3419C79.4996 33.8435 79.7374 33.5874 80.0288 33.4112C80.3201 33.2349 80.6535 33.1454 80.9915 33.1528C81.0094 33.1528 81.0265 33.1601 81.0391 33.1731C81.0518 33.186 81.0589 33.2036 81.0589 33.222V34.7132C81.0589 34.7316 81.0518 34.7491 81.0391 34.7622C81.0265 34.7751 81.0094 34.7824 80.9915 34.7824H80.6307C79.6592 34.7824 79.3267 35.182 79.3267 35.6753V38.6801C79.3267 38.6981 79.3199 38.7153 79.3077 38.7283C79.2956 38.7412 79.279 38.7487 79.2615 38.7493H77.851C77.8338 38.7506 77.8168 38.7451 77.8035 38.7338C77.7901 38.7226 77.7815 38.7066 77.7793 38.689Z" fill="white"/>
<path d="M54.3242 36.015C54.3242 34.2694 54.9871 33.1621 56.867 33.1621C58.747 33.1621 59.4207 34.2783 59.4207 36.015C59.4207 37.7518 58.7578 38.868 56.867 38.868C54.9762 38.868 54.3242 37.7719 54.3242 36.015ZM55.9933 36.015C55.9933 36.9593 56.1281 37.5375 56.8627 37.5375C57.5973 37.5375 57.7472 36.9593 57.7472 36.015C57.7472 35.0708 57.6103 34.5015 56.8627 34.5015C56.115 34.5015 55.9933 35.0708 55.9933 36.015Z" fill="white"/>
<path d="M45.1526 35.436C45.2082 34.3121 44.8255 32.4743 43.9162 30.9708C43.8916 30.9322 43.8508 30.9472 43.8589 30.9876C43.9194 31.216 43.9342 31.631 43.5809 31.6058C42.9529 31.5621 43.6022 30.1812 42.2235 29.2237C42.2183 29.2187 42.2116 29.2158 42.2046 29.2155C42.1975 29.2151 42.1906 29.2174 42.1851 29.2219C42.1795 29.2264 42.1757 29.2327 42.1743 29.2399C42.173 29.247 42.1742 29.2544 42.1777 29.2607C42.2725 29.4454 42.3281 30.0216 42.1106 30.2182C41.9356 30.3761 41.62 30.3341 41.3043 29.815C41.0944 29.457 40.9861 29.0458 40.9915 28.6278C40.997 28.2099 41.1161 27.8018 41.3354 27.4497C41.3615 27.406 41.3256 27.3892 41.2961 27.3993C39.399 28.0427 39.0195 30.3408 38.6156 31.1774C38.5485 31.3185 38.4896 31.3908 38.3735 31.3841C38.0284 31.3605 38.277 30.6029 38.3964 30.3391C38.399 30.3327 38.3994 30.3256 38.3975 30.319C38.3956 30.3123 38.3915 30.3065 38.386 30.3026C38.3804 30.2986 38.3737 30.2968 38.367 30.2973C38.3602 30.2979 38.3539 30.3008 38.349 30.3055C37.2417 31.5555 36.5334 33.1236 36.3193 34.7993C36.3193 34.7606 36.303 34.937 36.2932 35.0664C36.2932 35.1168 36.2899 35.1677 36.2834 35.2193C36.2834 35.2797 36.2834 35.3402 36.2834 35.4024C36.2736 36.6118 36.732 37.7757 37.5576 38.6379C38.3833 39.5002 39.5087 39.9902 40.6861 40.0002C41.8635 40.0103 42.9966 39.5395 43.8361 38.6914C44.6756 37.8433 45.1527 36.6874 45.1624 35.478C45.1543 35.4628 45.1526 35.4494 45.1526 35.436ZM40.6975 37.5543C40.29 37.552 39.8924 37.4255 39.5549 37.1908C39.2174 36.9562 38.9553 36.624 38.8017 36.2363C38.6482 35.8485 38.6101 35.4227 38.6923 35.0127C38.7745 34.6027 38.9733 34.227 39.2635 33.9331C39.5538 33.6393 39.9223 33.4405 40.3226 33.362C40.7229 33.2834 41.1369 33.3286 41.5122 33.4919C41.8874 33.6551 42.2071 33.9291 42.4306 34.279C42.6542 34.629 42.7717 35.0392 42.7681 35.4578C42.7633 36.0175 42.5427 36.5526 42.1546 36.9456C41.7665 37.3386 41.2425 37.5574 40.6975 37.5543Z" fill="white"/>
</svg>
