<svg width="56" height="17" viewBox="0 0 56 17" fill="none" xmlns="http://www.w3.org/2000/svg">
<path fill-rule="evenodd" clip-rule="evenodd" d="M19.7993 0.826238C19.6842 0.862664 19.6289 0.898409 19.536 0.996682C19.4282 1.11067 19.3495 1.27056 19.2906 1.49546C19.253 1.63898 19.2448 1.71608 19.2372 1.99849C19.2268 2.38603 19.2475 2.63484 19.3207 3.00254C19.4577 3.69087 19.7951 4.41364 20.234 4.95923C20.2874 5.02568 20.3311 5.08917 20.3311 5.10031C20.3311 5.11147 20.3193 5.15911 20.3049 5.20618C20.2127 5.50662 20.1686 6.06133 20.2079 6.42516C20.2824 7.11442 20.5429 7.7602 20.9814 8.34281C21.0906 8.48781 21.3488 8.74682 21.8133 9.17714L22.0835 9.42753L22.0956 9.70489C22.1179 10.216 22.2194 10.623 22.4309 11.0492C22.6129 11.4158 22.8111 11.6865 23.1057 11.9708C23.3357 12.1926 23.4842 12.2992 23.9552 12.5804C24.3151 12.7952 24.3677 12.8321 24.3671 12.8691C24.3666 12.9067 23.4475 14.4897 22.568 15.9679C22.4009 16.2488 22.2601 16.5042 22.255 16.5355C22.2421 16.6149 22.2879 16.7137 22.3571 16.7559C22.412 16.7894 22.4438 16.7911 23.004 16.7912C23.5579 16.7913 23.5973 16.7892 23.6612 16.7565C23.6986 16.7374 23.7483 16.6963 23.7717 16.665C23.795 16.6337 24.0866 16.1374 24.4197 15.562C24.7528 14.9866 25.0314 14.5093 25.0388 14.5013C25.0462 14.4933 25.1807 14.5146 25.3377 14.5486C27.0764 14.925 28.8351 14.936 30.5054 14.5811C30.6685 14.5465 30.8243 14.5176 30.8518 14.517C30.8996 14.5158 30.929 14.5618 31.5422 15.5962C32.0232 16.4078 32.1989 16.6899 32.248 16.7296L32.3133 16.7825L32.908 16.7876C33.333 16.7912 33.5168 16.7868 33.5521 16.7722C33.6533 16.7302 33.7077 16.594 33.6644 16.4905C33.6506 16.4574 33.1671 15.6322 32.59 14.6568C32.0129 13.6814 31.5432 12.8705 31.5462 12.8548C31.5493 12.839 31.7335 12.718 31.9633 12.5809C32.1896 12.4459 32.4368 12.2895 32.5125 12.2332C32.6945 12.098 33.078 11.7089 33.204 11.5315C33.6151 10.9528 33.8271 10.302 33.8271 9.61893V9.43733L34.0864 9.19541C34.2291 9.06235 34.4285 8.87702 34.5296 8.78357C35.168 8.19348 35.5887 7.37912 35.7009 6.51582C35.7532 6.11406 35.7274 5.65453 35.631 5.26953L35.5859 5.08939L35.7154 4.92033C36.205 4.28126 36.5028 3.60268 36.6354 2.82329C36.6815 2.55282 36.7006 1.9678 36.6715 1.7207C36.6092 1.19284 36.3664 0.84786 36.0291 0.807895L35.9442 0.797852L35.7917 1.00083C35.5091 1.37713 35.2873 1.62818 34.8658 2.04911C33.8748 3.03853 32.8656 3.77696 30.8542 4.98434C30.1693 5.39539 29.9192 5.58032 29.5546 5.94506C29.2822 6.21763 29.1396 6.39057 28.9359 6.69543C28.5067 7.33771 28.2955 7.99795 28.2972 8.69193C28.299 9.36221 28.4928 10.1536 28.8097 10.7843C28.8656 10.8956 30.0446 13.0624 30.1052 13.1653C30.1083 13.1705 30.1043 13.1853 30.0964 13.1981C30.0734 13.2353 29.4975 13.324 28.9361 13.3769C28.6186 13.4067 27.3438 13.407 27.053 13.3772C26.3912 13.3095 25.8637 13.2247 25.8373 13.1819C25.8255 13.1626 25.9776 12.8699 26.4176 12.0659C27.1087 10.8029 27.1553 10.7125 27.2806 10.3913C27.4368 9.9904 27.5388 9.59504 27.5935 9.17729C27.6279 8.91496 27.6274 8.44972 27.5924 8.22321C27.424 7.13138 26.7165 6.0848 25.6493 5.34894C25.5582 5.28613 25.213 5.07177 24.8821 4.8726C22.9885 3.7327 21.9098 2.931 20.9501 1.9504C20.6157 1.60867 20.3642 1.31792 20.1269 0.998809C19.9651 0.781287 19.9562 0.776614 19.7993 0.826238ZM16.6869 7.49211C15.8849 7.52964 15.0713 7.71147 14.5078 7.97914C14.1138 8.16633 13.7069 8.48623 13.5016 8.77039C13.2211 9.15852 13.0904 9.56254 13.09 10.0433C13.0888 11.4125 14.0716 12.2482 15.8775 12.4137C15.9918 12.4241 16.3482 12.4484 16.6694 12.4676C16.9907 12.4867 17.3791 12.5142 17.5326 12.5285C19.1936 12.6839 19.8904 12.994 20.0634 13.6548C20.1016 13.8006 20.1017 14.1087 20.0635 14.2672C19.9035 14.9328 19.1143 15.3353 17.8464 15.3979C17.0997 15.4348 16.2288 15.352 15.5102 15.1756C14.913 15.0291 14.5481 14.885 13.9493 14.5591C13.8295 14.4938 13.7065 14.4354 13.6762 14.4291C13.596 14.4126 13.4843 14.4486 13.4177 14.5125C13.3491 14.5782 12.9586 15.3112 12.9439 15.4018C12.9325 15.4721 12.9599 15.5669 13.0101 15.6308C13.0543 15.6869 13.4076 15.8963 13.6627 16.0176C14.8505 16.5824 16.4642 16.8725 17.9772 16.7933C18.5906 16.7612 19.0232 16.685 19.5214 16.5214C20.8169 16.096 21.5521 15.2291 21.5992 14.0711C21.6443 12.9632 21.0756 12.1032 19.985 11.6302C19.2228 11.2996 18.4051 11.1605 16.652 11.0631C16.3883 11.0485 16.0627 11.0245 15.9284 11.0099C15.2013 10.9306 14.7726 10.7252 14.6447 10.3946C14.597 10.2712 14.5806 10.0109 14.6118 9.87066C14.7195 9.38619 15.2545 9.08495 16.2771 8.93301C16.4408 8.90868 16.5983 8.90187 17.0007 8.90162C17.5812 8.90129 17.7102 8.91499 18.2495 9.03435C18.5269 9.09574 18.5743 9.1019 18.6377 9.08481C18.7221 9.06209 18.8191 8.98281 18.8464 8.91433C18.8776 8.83622 19.0583 8.06656 19.0583 8.012C19.0583 7.94044 18.9942 7.81781 18.9347 7.77544C18.9068 7.75554 18.7917 7.71668 18.679 7.68906C18.04 7.53248 17.3281 7.4621 16.6869 7.49211ZM50.5837 7.49166C48.5189 7.6021 47.2513 8.36058 46.9975 9.63743C46.9576 9.83851 46.9572 10.253 46.9967 10.4707C47.154 11.3372 47.7823 11.9596 48.7836 12.2408C49.1883 12.3544 49.5932 12.4116 50.2611 12.4496C50.7889 12.4796 51.3217 12.5183 51.5951 12.5465C52.9524 12.6867 53.624 12.955 53.8617 13.4521C53.9458 13.6281 53.9664 13.7289 53.9664 13.9646C53.9664 14.3198 53.8764 14.547 53.6445 14.7773C53.1838 15.2347 52.2218 15.4598 50.9935 15.3975C50.2732 15.3609 49.6784 15.2673 49.0962 15.0988C48.656 14.9715 48.3415 14.8397 47.8898 14.5932C47.7363 14.5095 47.5859 14.4358 47.5556 14.4294C47.4757 14.4125 47.364 14.4484 47.2967 14.5125C47.2234 14.5822 46.8346 15.3097 46.8219 15.4008C46.8104 15.4836 46.8543 15.6024 46.918 15.6606C47.0404 15.7725 47.5805 16.0518 47.9682 16.2035C49.0855 16.6409 50.4702 16.8553 51.7869 16.7949C52.4457 16.7646 52.8807 16.6921 53.3736 16.5303C53.9813 16.3308 54.3957 16.0879 54.7694 15.7121C55.1233 15.3564 55.3248 14.9797 55.433 14.4722C55.4855 14.2257 55.4896 13.7289 55.4411 13.4783C55.2082 12.2741 54.2355 11.5361 52.5018 11.2483C52.0082 11.1664 51.5791 11.125 50.6796 11.0725C49.9343 11.029 49.7212 11.0098 49.4868 10.9649C48.9731 10.8666 48.6704 10.6957 48.5397 10.4303C48.487 10.3232 48.4821 10.2989 48.4766 10.1134C48.4699 9.89178 48.4993 9.76399 48.5903 9.61992C48.7967 9.29302 49.3135 9.06029 50.0955 8.94214C50.3328 8.90629 50.4286 8.90134 50.8801 8.90153C51.4608 8.9018 51.5939 8.91594 52.1289 9.03435C52.4987 9.11616 52.5508 9.11245 52.6614 8.9963C52.7223 8.93227 52.7297 8.91037 52.833 8.48433C52.954 7.98553 52.9561 7.9406 52.8636 7.83523C52.7902 7.75169 52.7504 7.73439 52.492 7.67401C51.8691 7.52842 51.1612 7.46078 50.5837 7.49166ZM6.15117 7.62559C6.01714 7.67126 5.8706 7.76639 5.8054 7.85005C5.78089 7.88152 4.8007 9.54327 3.62722 11.5428C2.45375 13.5424 1.31712 15.4763 1.10136 15.8404C0.757336 16.4211 0.709106 16.5115 0.709106 16.5758C0.709106 16.6579 0.744886 16.7235 0.814668 16.7692C0.857248 16.7971 0.91798 16.8 1.4668 16.8H2.07199L2.14592 16.7477C2.21106 16.7016 2.29507 16.5657 2.85209 15.6056C3.30007 14.8334 3.49395 14.5143 3.51735 14.5106C3.53552 14.5078 3.65956 14.5298 3.793 14.5595C4.32646 14.6782 5.00579 14.7755 5.63205 14.8229C5.7807 14.8342 6.14948 14.8434 6.45157 14.8434C6.75366 14.8434 7.12245 14.8342 7.27109 14.8229C7.89407 14.7757 8.57722 14.6781 9.10246 14.5612C9.23165 14.5324 9.34265 14.5144 9.34918 14.521C9.35568 14.5277 9.64403 15.0118 9.98995 15.5968C10.3622 16.2264 10.6431 16.6831 10.6783 16.7159C10.711 16.7463 10.7679 16.7796 10.8047 16.7899C10.8774 16.81 11.8651 16.8166 11.9604 16.7976C12.0708 16.7755 12.1577 16.636 12.1298 16.5255C12.1244 16.5038 10.9735 14.548 9.57229 12.1793C7.91135 9.3714 7.00011 7.84721 6.95411 7.80001C6.76391 7.6048 6.42693 7.53161 6.15117 7.62559ZM40.1915 7.61168C40.063 7.64735 39.9237 7.73317 39.8389 7.82881C39.8007 7.87197 38.8439 9.48442 37.7128 11.412C36.5817 13.3397 35.4448 15.2745 35.1863 15.7117C34.7812 16.3968 34.7164 16.5162 34.7164 16.5766C34.7164 16.6678 34.7771 16.7586 34.8565 16.7859C34.9358 16.8132 35.9687 16.8166 36.065 16.7899C36.1019 16.7796 36.1586 16.7463 36.1911 16.7159C36.2268 16.6823 36.4954 16.2375 36.8718 15.5881C37.2137 14.9983 37.5013 14.5107 37.5109 14.5046C37.5205 14.4984 37.5528 14.5005 37.5827 14.5093C37.6983 14.5431 38.4162 14.6815 38.6483 14.7147C40.1117 14.924 41.4776 14.888 42.9046 14.6025C43.1165 14.5601 43.3027 14.5205 43.3183 14.5145C43.3533 14.5011 43.3081 14.4291 44.0554 15.6912C44.5715 16.5629 44.6596 16.7023 44.7238 16.7477L44.7977 16.8L45.3586 16.8054C45.7859 16.8095 45.9359 16.8053 45.9885 16.7879C46.078 16.7584 46.1374 16.6729 46.1374 16.5736C46.1374 16.508 45.8829 16.0706 43.5905 12.1954C42.1897 9.82747 41.0242 7.86475 41.0006 7.83377C40.9429 7.75811 40.8204 7.67603 40.7001 7.63241C40.5698 7.58521 40.3231 7.57515 40.1915 7.61168ZM6.35722 9.61171C6.34325 9.63328 5.86872 10.4417 5.30269 11.4083C4.41211 12.9289 4.25225 13.2167 4.29809 13.2167C4.30079 13.2167 4.36468 13.2282 4.44008 13.2421C5.21216 13.385 6.12917 13.4482 6.90056 13.4117C7.64701 13.3764 8.52824 13.2654 8.55188 13.2038C8.56425 13.1716 6.43705 9.57248 6.40561 9.57248C6.39297 9.57248 6.3712 9.59014 6.35722 9.61171ZM39.3438 11.353C38.7695 12.3331 38.2971 13.1495 38.294 13.1672C38.2867 13.2097 38.3232 13.222 38.5873 13.266C39.755 13.4606 40.9229 13.4727 42.1008 13.3024C42.4942 13.2455 42.5536 13.2309 42.5577 13.1906C42.5623 13.1446 40.4515 9.58306 40.4155 9.57612C40.3956 9.57229 40.1008 10.0611 39.3438 11.353Z" fill="#040404"/>
</svg>
