<svg width="248" height="48" viewBox="0 0 248 48" fill="none" xmlns="http://www.w3.org/2000/svg">
<g id="Botao">
<rect id="Fundo" width="248" height="48" rx="24" fill="url(#paint0_linear_1024_361)"/>
<path id="Texto" d="M41.332 31V18.76H49.144V20.92H43.816V24.52H48.172V26.68H43.816V31H41.332ZM57.2737 24.808V28.552C57.2977 28.84 57.3457 29.044 57.4177 29.164C57.4897 29.272 57.6397 29.35 57.8677 29.398L57.7957 31.216C57.1837 31.216 56.6917 31.174 56.3197 31.09C55.9597 31.006 55.5937 30.838 55.2217 30.586C54.3577 31.006 53.4757 31.216 52.5757 31.216C50.7157 31.216 49.7857 30.232 49.7857 28.264C49.7857 27.304 50.0437 26.626 50.5597 26.23C51.0757 25.822 51.8677 25.582 52.9357 25.51L54.8617 25.366V24.808C54.8617 24.436 54.7777 24.184 54.6097 24.052C54.4417 23.908 54.1717 23.836 53.7997 23.836L50.4157 23.98L50.3437 22.306C51.6277 21.958 52.8457 21.784 53.9977 21.784C55.1617 21.784 55.9957 22.024 56.4997 22.504C57.0157 22.984 57.2737 23.752 57.2737 24.808ZM53.2237 27.184C52.5517 27.244 52.2157 27.604 52.2157 28.264C52.2157 28.924 52.5097 29.254 53.0977 29.254C53.5537 29.254 54.0517 29.182 54.5917 29.038L54.8617 28.966V27.04L53.2237 27.184ZM59.195 24.16V22H65.873V24.16L62.093 28.84H65.873V31H59.195V28.84L62.975 24.16H59.195ZM69.7269 27.526C69.7389 28.078 69.8829 28.48 70.1589 28.732C70.4469 28.972 70.8549 29.092 71.3829 29.092C72.4989 29.092 73.4949 29.056 74.3709 28.984L74.8749 28.93L74.9109 30.712C73.5309 31.048 72.2829 31.216 71.1669 31.216C69.8109 31.216 68.8269 30.856 68.2149 30.136C67.6029 29.416 67.2969 28.246 67.2969 26.626C67.2969 23.398 68.6229 21.784 71.2749 21.784C73.8909 21.784 75.1989 23.14 75.1989 25.852L75.0189 27.526H69.7269ZM72.8229 25.69C72.8229 24.97 72.7089 24.472 72.4809 24.196C72.2529 23.908 71.8509 23.764 71.2749 23.764C70.7109 23.764 70.3089 23.914 70.0689 24.214C69.8409 24.502 69.7209 24.994 69.7089 25.69H72.8229ZM76.9226 31V22H79.3166V22.954C80.3246 22.354 81.2846 21.964 82.1966 21.784V24.214C81.2246 24.418 80.3906 24.628 79.6946 24.844L79.3346 24.97V31H76.9226ZM90.941 21.784C91.565 21.784 92.363 21.88 93.335 22.072L93.821 22.18L93.749 24.088C92.801 23.992 92.099 23.944 91.643 23.944C90.815 23.944 90.263 24.124 89.987 24.484C89.723 24.832 89.591 25.498 89.591 26.482C89.591 27.466 89.723 28.144 89.987 28.516C90.263 28.876 90.821 29.056 91.661 29.056L93.749 28.912L93.821 30.838C92.537 31.09 91.559 31.216 90.887 31.216C89.555 31.216 88.595 30.844 88.007 30.1C87.431 29.344 87.143 28.138 87.143 26.482C87.143 24.826 87.443 23.632 88.043 22.9C88.643 22.156 89.609 21.784 90.941 21.784ZM102.502 24.808V28.552C102.526 28.84 102.574 29.044 102.646 29.164C102.718 29.272 102.868 29.35 103.096 29.398L103.024 31.216C102.412 31.216 101.92 31.174 101.548 31.09C101.188 31.006 100.822 30.838 100.45 30.586C99.5862 31.006 98.7042 31.216 97.8042 31.216C95.9442 31.216 95.0142 30.232 95.0142 28.264C95.0142 27.304 95.2722 26.626 95.7882 26.23C96.3042 25.822 97.0962 25.582 98.1642 25.51L100.09 25.366V24.808C100.09 24.436 100.006 24.184 99.8382 24.052C99.6702 23.908 99.4002 23.836 99.0282 23.836L95.6442 23.98L95.5722 22.306C96.8562 21.958 98.0742 21.784 99.2262 21.784C100.39 21.784 101.224 22.024 101.728 22.504C102.244 22.984 102.502 23.752 102.502 24.808ZM98.4522 27.184C97.7802 27.244 97.4442 27.604 97.4442 28.264C97.4442 28.924 97.7382 29.254 98.3262 29.254C98.7822 29.254 99.2802 29.182 99.8202 29.038L100.09 28.966V27.04L98.4522 27.184ZM112.452 18.4V31H110.058V30.622C109.218 31.018 108.492 31.216 107.88 31.216C106.572 31.216 105.66 30.838 105.144 30.082C104.628 29.326 104.37 28.132 104.37 26.5C104.37 24.856 104.676 23.662 105.288 22.918C105.912 22.162 106.848 21.784 108.096 21.784C108.48 21.784 109.014 21.844 109.698 21.964L110.04 22.036V18.4H112.452ZM109.788 28.84L110.04 28.786V24.052C109.38 23.932 108.792 23.872 108.276 23.872C107.304 23.872 106.818 24.736 106.818 26.464C106.818 27.4 106.926 28.066 107.142 28.462C107.358 28.858 107.712 29.056 108.204 29.056C108.708 29.056 109.236 28.984 109.788 28.84ZM121.574 24.808V28.552C121.598 28.84 121.646 29.044 121.718 29.164C121.79 29.272 121.94 29.35 122.168 29.398L122.096 31.216C121.484 31.216 120.992 31.174 120.62 31.09C120.26 31.006 119.894 30.838 119.522 30.586C118.658 31.006 117.776 31.216 116.876 31.216C115.016 31.216 114.086 30.232 114.086 28.264C114.086 27.304 114.344 26.626 114.86 26.23C115.376 25.822 116.168 25.582 117.236 25.51L119.162 25.366V24.808C119.162 24.436 119.078 24.184 118.91 24.052C118.742 23.908 118.472 23.836 118.1 23.836L114.716 23.98L114.644 22.306C115.928 21.958 117.146 21.784 118.298 21.784C119.462 21.784 120.296 22.024 120.8 22.504C121.316 22.984 121.574 23.752 121.574 24.808ZM117.524 27.184C116.852 27.244 116.516 27.604 116.516 28.264C116.516 28.924 116.81 29.254 117.398 29.254C117.854 29.254 118.352 29.182 118.892 29.038L119.162 28.966V27.04L117.524 27.184ZM130.336 24.25C128.848 24.058 127.804 23.962 127.204 23.962C126.616 23.962 126.232 24.016 126.052 24.124C125.884 24.232 125.8 24.406 125.8 24.646C125.8 24.874 125.914 25.036 126.142 25.132C126.382 25.216 126.982 25.348 127.942 25.528C128.914 25.696 129.604 25.978 130.012 26.374C130.42 26.77 130.624 27.412 130.624 28.3C130.624 30.244 129.418 31.216 127.006 31.216C126.214 31.216 125.254 31.108 124.126 30.892L123.55 30.784L123.622 28.768C125.11 28.96 126.142 29.056 126.718 29.056C127.306 29.056 127.702 29.002 127.906 28.894C128.122 28.774 128.23 28.6 128.23 28.372C128.23 28.144 128.116 27.976 127.888 27.868C127.672 27.76 127.096 27.628 126.16 27.472C125.236 27.316 124.546 27.052 124.09 26.68C123.634 26.308 123.406 25.648 123.406 24.7C123.406 23.74 123.73 23.02 124.378 22.54C125.026 22.048 125.86 21.802 126.88 21.802C127.588 21.802 128.554 21.916 129.778 22.144L130.372 22.252L130.336 24.25ZM137.35 24.052H135.136V27.742C135.136 28.102 135.142 28.36 135.154 28.516C135.178 28.66 135.244 28.786 135.352 28.894C135.472 29.002 135.652 29.056 135.892 29.056L137.26 29.02L137.368 30.946C136.564 31.126 135.952 31.216 135.532 31.216C134.452 31.216 133.714 30.976 133.318 30.496C132.922 30.004 132.724 29.104 132.724 27.796V24.052H131.662V22H132.724V19.498H135.136V22H137.35V24.052ZM138.921 31V22H141.315V22.954C142.323 22.354 143.283 21.964 144.195 21.784V24.214C143.223 24.418 142.389 24.628 141.693 24.844L141.333 24.97V31H138.921ZM146.104 23.026C146.74 22.198 147.802 21.784 149.29 21.784C150.778 21.784 151.84 22.198 152.476 23.026C153.112 23.842 153.43 24.994 153.43 26.482C153.43 29.638 152.05 31.216 149.29 31.216C146.53 31.216 145.15 29.638 145.15 26.482C145.15 24.994 145.468 23.842 146.104 23.026ZM147.958 28.516C148.21 28.948 148.654 29.164 149.29 29.164C149.926 29.164 150.364 28.948 150.604 28.516C150.856 28.084 150.982 27.406 150.982 26.482C150.982 25.558 150.856 24.886 150.604 24.466C150.364 24.046 149.926 23.836 149.29 23.836C148.654 23.836 148.21 24.046 147.958 24.466C147.718 24.886 147.598 25.558 147.598 26.482C147.598 27.406 147.718 28.084 147.958 28.516ZM166.047 24.808V28.552C166.071 28.84 166.119 29.044 166.191 29.164C166.263 29.272 166.413 29.35 166.641 29.398L166.569 31.216C165.957 31.216 165.465 31.174 165.093 31.09C164.733 31.006 164.367 30.838 163.995 30.586C163.131 31.006 162.249 31.216 161.349 31.216C159.489 31.216 158.559 30.232 158.559 28.264C158.559 27.304 158.817 26.626 159.333 26.23C159.849 25.822 160.641 25.582 161.709 25.51L163.635 25.366V24.808C163.635 24.436 163.551 24.184 163.383 24.052C163.215 23.908 162.945 23.836 162.573 23.836L159.189 23.98L159.117 22.306C160.401 21.958 161.619 21.784 162.771 21.784C163.935 21.784 164.769 22.024 165.273 22.504C165.789 22.984 166.047 23.752 166.047 24.808ZM161.997 27.184C161.325 27.244 160.989 27.604 160.989 28.264C160.989 28.924 161.283 29.254 161.871 29.254C162.327 29.254 162.825 29.182 163.365 29.038L163.635 28.966V27.04L161.997 27.184ZM176.5 32.116C176.5 33.148 176.104 33.91 175.312 34.402C174.52 34.894 173.446 35.14 172.09 35.14C170.746 35.14 169.708 34.96 168.976 34.6C168.256 34.24 167.896 33.586 167.896 32.638C167.896 31.882 168.328 31.168 169.192 30.496C168.748 30.196 168.526 29.74 168.526 29.128C168.526 28.888 168.706 28.492 169.066 27.94L169.228 27.688C168.412 27.1 168.004 26.236 168.004 25.096C168.004 23.944 168.346 23.11 169.03 22.594C169.726 22.078 170.644 21.82 171.784 21.82C172.3 21.82 172.81 21.88 173.314 22L173.602 22.054L176.5 21.964V23.89L175.15 23.782C175.414 24.19 175.546 24.598 175.546 25.006C175.546 26.206 175.24 27.034 174.628 27.49C174.016 27.946 173.056 28.174 171.748 28.174C171.472 28.174 171.226 28.15 171.01 28.102C170.89 28.414 170.83 28.672 170.83 28.876C170.83 29.068 170.932 29.2 171.136 29.272C171.34 29.344 171.82 29.386 172.576 29.398C174.088 29.41 175.12 29.614 175.672 30.01C176.224 30.394 176.5 31.096 176.5 32.116ZM170.272 32.386C170.272 32.902 170.902 33.16 172.162 33.16C173.434 33.16 174.07 32.86 174.07 32.26C174.07 31.936 173.962 31.726 173.746 31.63C173.53 31.546 173.074 31.498 172.378 31.486L170.758 31.36C170.434 31.684 170.272 32.026 170.272 32.386ZM170.416 25.024C170.416 25.9 170.872 26.338 171.784 26.338C172.708 26.338 173.17 25.9 173.17 25.024C173.17 24.136 172.708 23.692 171.784 23.692C170.872 23.692 170.416 24.136 170.416 25.024ZM178.448 23.026C179.084 22.198 180.146 21.784 181.634 21.784C183.122 21.784 184.184 22.198 184.82 23.026C185.456 23.842 185.774 24.994 185.774 26.482C185.774 29.638 184.394 31.216 181.634 31.216C178.874 31.216 177.494 29.638 177.494 26.482C177.494 24.994 177.812 23.842 178.448 23.026ZM180.302 28.516C180.554 28.948 180.998 29.164 181.634 29.164C182.27 29.164 182.708 28.948 182.948 28.516C183.2 28.084 183.326 27.406 183.326 26.482C183.326 25.558 183.2 24.886 182.948 24.466C182.708 24.046 182.27 23.836 181.634 23.836C180.998 23.836 180.554 24.046 180.302 24.466C180.062 24.886 179.942 25.558 179.942 26.482C179.942 27.406 180.062 28.084 180.302 28.516ZM187.542 31V22H189.936V22.954C190.944 22.354 191.904 21.964 192.816 21.784V24.214C191.844 24.418 191.01 24.628 190.314 24.844L189.954 24.97V31H187.542ZM201.133 24.808V28.552C201.157 28.84 201.205 29.044 201.277 29.164C201.349 29.272 201.499 29.35 201.727 29.398L201.655 31.216C201.043 31.216 200.551 31.174 200.179 31.09C199.819 31.006 199.453 30.838 199.081 30.586C198.217 31.006 197.335 31.216 196.435 31.216C194.575 31.216 193.645 30.232 193.645 28.264C193.645 27.304 193.903 26.626 194.419 26.23C194.935 25.822 195.727 25.582 196.795 25.51L198.721 25.366V24.808C198.721 24.436 198.637 24.184 198.469 24.052C198.301 23.908 198.031 23.836 197.659 23.836L194.275 23.98L194.203 22.306C195.487 21.958 196.705 21.784 197.857 21.784C199.021 21.784 199.855 22.024 200.359 22.504C200.875 22.984 201.133 23.752 201.133 24.808ZM197.083 27.184C196.411 27.244 196.075 27.604 196.075 28.264C196.075 28.924 196.369 29.254 196.957 29.254C197.413 29.254 197.911 29.182 198.451 29.038L198.721 28.966V27.04L197.083 27.184ZM203.54 31V28.102H206.132V31H203.54ZM203.774 26.5L203.54 18.76H206.15L205.898 26.5H203.774Z" fill="#06152E"/>
</g>
<defs>
<linearGradient id="paint0_linear_1024_361" x1="1.38581e-06" y1="24" x2="248" y2="24" gradientUnits="userSpaceOnUse">
<stop class="degrade-a1" stop-color="#C9FE3C"/>
<stop class="degrade-a2" offset="1" stop-color="#B1F401"/>
</linearGradient>
</defs>
</svg>
