<svg width="293" height="92" viewBox="0 0 293 92" fill="none" xmlns="http://www.w3.org/2000/svg">
<g filter="url(#filter0_d_675_707)">
<rect x="22.5" y="18" width="248" height="48" rx="24" fill="#C9FE3C" shape-rendering="crispEdges"/>
<path d="M63.832 49V36.76H71.644V38.92H66.316V42.52H70.672V44.68H66.316V49H63.832ZM79.7737 42.808V46.552C79.7977 46.84 79.8457 47.044 79.9177 47.164C79.9897 47.272 80.1397 47.35 80.3677 47.398L80.2957 49.216C79.6837 49.216 79.1917 49.174 78.8197 49.09C78.4597 49.006 78.0937 48.838 77.7217 48.586C76.8577 49.006 75.9757 49.216 75.0757 49.216C73.2157 49.216 72.2857 48.232 72.2857 46.264C72.2857 45.304 72.5437 44.626 73.0597 44.23C73.5757 43.822 74.3677 43.582 75.4357 43.51L77.3617 43.366V42.808C77.3617 42.436 77.2777 42.184 77.1097 42.052C76.9417 41.908 76.6717 41.836 76.2997 41.836L72.9157 41.98L72.8437 40.306C74.1277 39.958 75.3457 39.784 76.4977 39.784C77.6617 39.784 78.4957 40.024 78.9997 40.504C79.5157 40.984 79.7737 41.752 79.7737 42.808ZM75.7237 45.184C75.0517 45.244 74.7157 45.604 74.7157 46.264C74.7157 46.924 75.0097 47.254 75.5977 47.254C76.0537 47.254 76.5517 47.182 77.0917 47.038L77.3617 46.966V45.04L75.7237 45.184ZM81.695 42.16V40H88.373V42.16L84.593 46.84H88.373V49H81.695V46.84L85.475 42.16H81.695ZM92.2269 45.526C92.2389 46.078 92.3829 46.48 92.6589 46.732C92.9469 46.972 93.3549 47.092 93.8829 47.092C94.9989 47.092 95.9949 47.056 96.8709 46.984L97.3749 46.93L97.4109 48.712C96.0309 49.048 94.7829 49.216 93.6669 49.216C92.3109 49.216 91.3269 48.856 90.7149 48.136C90.1029 47.416 89.7969 46.246 89.7969 44.626C89.7969 41.398 91.1229 39.784 93.7749 39.784C96.3909 39.784 97.6989 41.14 97.6989 43.852L97.5189 45.526H92.2269ZM95.3229 43.69C95.3229 42.97 95.2089 42.472 94.9809 42.196C94.7529 41.908 94.3509 41.764 93.7749 41.764C93.2109 41.764 92.8089 41.914 92.5689 42.214C92.3409 42.502 92.2209 42.994 92.2089 43.69H95.3229ZM99.4226 49V40H101.817V40.954C102.825 40.354 103.785 39.964 104.697 39.784V42.214C103.725 42.418 102.891 42.628 102.195 42.844L101.835 42.97V49H99.4226ZM113.441 39.784C114.065 39.784 114.863 39.88 115.835 40.072L116.321 40.18L116.249 42.088C115.301 41.992 114.599 41.944 114.143 41.944C113.315 41.944 112.763 42.124 112.487 42.484C112.223 42.832 112.091 43.498 112.091 44.482C112.091 45.466 112.223 46.144 112.487 46.516C112.763 46.876 113.321 47.056 114.161 47.056L116.249 46.912L116.321 48.838C115.037 49.09 114.059 49.216 113.387 49.216C112.055 49.216 111.095 48.844 110.507 48.1C109.931 47.344 109.643 46.138 109.643 44.482C109.643 42.826 109.943 41.632 110.543 40.9C111.143 40.156 112.109 39.784 113.441 39.784ZM125.002 42.808V46.552C125.026 46.84 125.074 47.044 125.146 47.164C125.218 47.272 125.368 47.35 125.596 47.398L125.524 49.216C124.912 49.216 124.42 49.174 124.048 49.09C123.688 49.006 123.322 48.838 122.95 48.586C122.086 49.006 121.204 49.216 120.304 49.216C118.444 49.216 117.514 48.232 117.514 46.264C117.514 45.304 117.772 44.626 118.288 44.23C118.804 43.822 119.596 43.582 120.664 43.51L122.59 43.366V42.808C122.59 42.436 122.506 42.184 122.338 42.052C122.17 41.908 121.9 41.836 121.528 41.836L118.144 41.98L118.072 40.306C119.356 39.958 120.574 39.784 121.726 39.784C122.89 39.784 123.724 40.024 124.228 40.504C124.744 40.984 125.002 41.752 125.002 42.808ZM120.952 45.184C120.28 45.244 119.944 45.604 119.944 46.264C119.944 46.924 120.238 47.254 120.826 47.254C121.282 47.254 121.78 47.182 122.32 47.038L122.59 46.966V45.04L120.952 45.184ZM134.952 36.4V49H132.558V48.622C131.718 49.018 130.992 49.216 130.38 49.216C129.072 49.216 128.16 48.838 127.644 48.082C127.128 47.326 126.87 46.132 126.87 44.5C126.87 42.856 127.176 41.662 127.788 40.918C128.412 40.162 129.348 39.784 130.596 39.784C130.98 39.784 131.514 39.844 132.198 39.964L132.54 40.036V36.4H134.952ZM132.288 46.84L132.54 46.786V42.052C131.88 41.932 131.292 41.872 130.776 41.872C129.804 41.872 129.318 42.736 129.318 44.464C129.318 45.4 129.426 46.066 129.642 46.462C129.858 46.858 130.212 47.056 130.704 47.056C131.208 47.056 131.736 46.984 132.288 46.84ZM144.074 42.808V46.552C144.098 46.84 144.146 47.044 144.218 47.164C144.29 47.272 144.44 47.35 144.668 47.398L144.596 49.216C143.984 49.216 143.492 49.174 143.12 49.09C142.76 49.006 142.394 48.838 142.022 48.586C141.158 49.006 140.276 49.216 139.376 49.216C137.516 49.216 136.586 48.232 136.586 46.264C136.586 45.304 136.844 44.626 137.36 44.23C137.876 43.822 138.668 43.582 139.736 43.51L141.662 43.366V42.808C141.662 42.436 141.578 42.184 141.41 42.052C141.242 41.908 140.972 41.836 140.6 41.836L137.216 41.98L137.144 40.306C138.428 39.958 139.646 39.784 140.798 39.784C141.962 39.784 142.796 40.024 143.3 40.504C143.816 40.984 144.074 41.752 144.074 42.808ZM140.024 45.184C139.352 45.244 139.016 45.604 139.016 46.264C139.016 46.924 139.31 47.254 139.898 47.254C140.354 47.254 140.852 47.182 141.392 47.038L141.662 46.966V45.04L140.024 45.184ZM152.836 42.25C151.348 42.058 150.304 41.962 149.704 41.962C149.116 41.962 148.732 42.016 148.552 42.124C148.384 42.232 148.3 42.406 148.3 42.646C148.3 42.874 148.414 43.036 148.642 43.132C148.882 43.216 149.482 43.348 150.442 43.528C151.414 43.696 152.104 43.978 152.512 44.374C152.92 44.77 153.124 45.412 153.124 46.3C153.124 48.244 151.918 49.216 149.506 49.216C148.714 49.216 147.754 49.108 146.626 48.892L146.05 48.784L146.122 46.768C147.61 46.96 148.642 47.056 149.218 47.056C149.806 47.056 150.202 47.002 150.406 46.894C150.622 46.774 150.73 46.6 150.73 46.372C150.73 46.144 150.616 45.976 150.388 45.868C150.172 45.76 149.596 45.628 148.66 45.472C147.736 45.316 147.046 45.052 146.59 44.68C146.134 44.308 145.906 43.648 145.906 42.7C145.906 41.74 146.23 41.02 146.878 40.54C147.526 40.048 148.36 39.802 149.38 39.802C150.088 39.802 151.054 39.916 152.278 40.144L152.872 40.252L152.836 42.25ZM159.85 42.052H157.636V45.742C157.636 46.102 157.642 46.36 157.654 46.516C157.678 46.66 157.744 46.786 157.852 46.894C157.972 47.002 158.152 47.056 158.392 47.056L159.76 47.02L159.868 48.946C159.064 49.126 158.452 49.216 158.032 49.216C156.952 49.216 156.214 48.976 155.818 48.496C155.422 48.004 155.224 47.104 155.224 45.796V42.052H154.162V40H155.224V37.498H157.636V40H159.85V42.052ZM161.421 49V40H163.815V40.954C164.823 40.354 165.783 39.964 166.695 39.784V42.214C165.723 42.418 164.889 42.628 164.193 42.844L163.833 42.97V49H161.421ZM168.604 41.026C169.24 40.198 170.302 39.784 171.79 39.784C173.278 39.784 174.34 40.198 174.976 41.026C175.612 41.842 175.93 42.994 175.93 44.482C175.93 47.638 174.55 49.216 171.79 49.216C169.03 49.216 167.65 47.638 167.65 44.482C167.65 42.994 167.968 41.842 168.604 41.026ZM170.458 46.516C170.71 46.948 171.154 47.164 171.79 47.164C172.426 47.164 172.864 46.948 173.104 46.516C173.356 46.084 173.482 45.406 173.482 44.482C173.482 43.558 173.356 42.886 173.104 42.466C172.864 42.046 172.426 41.836 171.79 41.836C171.154 41.836 170.71 42.046 170.458 42.466C170.218 42.886 170.098 43.558 170.098 44.482C170.098 45.406 170.218 46.084 170.458 46.516ZM188.547 42.808V46.552C188.571 46.84 188.619 47.044 188.691 47.164C188.763 47.272 188.913 47.35 189.141 47.398L189.069 49.216C188.457 49.216 187.965 49.174 187.593 49.09C187.233 49.006 186.867 48.838 186.495 48.586C185.631 49.006 184.749 49.216 183.849 49.216C181.989 49.216 181.059 48.232 181.059 46.264C181.059 45.304 181.317 44.626 181.833 44.23C182.349 43.822 183.141 43.582 184.209 43.51L186.135 43.366V42.808C186.135 42.436 186.051 42.184 185.883 42.052C185.715 41.908 185.445 41.836 185.073 41.836L181.689 41.98L181.617 40.306C182.901 39.958 184.119 39.784 185.271 39.784C186.435 39.784 187.269 40.024 187.773 40.504C188.289 40.984 188.547 41.752 188.547 42.808ZM184.497 45.184C183.825 45.244 183.489 45.604 183.489 46.264C183.489 46.924 183.783 47.254 184.371 47.254C184.827 47.254 185.325 47.182 185.865 47.038L186.135 46.966V45.04L184.497 45.184ZM199 50.116C199 51.148 198.604 51.91 197.812 52.402C197.02 52.894 195.946 53.14 194.59 53.14C193.246 53.14 192.208 52.96 191.476 52.6C190.756 52.24 190.396 51.586 190.396 50.638C190.396 49.882 190.828 49.168 191.692 48.496C191.248 48.196 191.026 47.74 191.026 47.128C191.026 46.888 191.206 46.492 191.566 45.94L191.728 45.688C190.912 45.1 190.504 44.236 190.504 43.096C190.504 41.944 190.846 41.11 191.53 40.594C192.226 40.078 193.144 39.82 194.284 39.82C194.8 39.82 195.31 39.88 195.814 40L196.102 40.054L199 39.964V41.89L197.65 41.782C197.914 42.19 198.046 42.598 198.046 43.006C198.046 44.206 197.74 45.034 197.128 45.49C196.516 45.946 195.556 46.174 194.248 46.174C193.972 46.174 193.726 46.15 193.51 46.102C193.39 46.414 193.33 46.672 193.33 46.876C193.33 47.068 193.432 47.2 193.636 47.272C193.84 47.344 194.32 47.386 195.076 47.398C196.588 47.41 197.62 47.614 198.172 48.01C198.724 48.394 199 49.096 199 50.116ZM192.772 50.386C192.772 50.902 193.402 51.16 194.662 51.16C195.934 51.16 196.57 50.86 196.57 50.26C196.57 49.936 196.462 49.726 196.246 49.63C196.03 49.546 195.574 49.498 194.878 49.486L193.258 49.36C192.934 49.684 192.772 50.026 192.772 50.386ZM192.916 43.024C192.916 43.9 193.372 44.338 194.284 44.338C195.208 44.338 195.67 43.9 195.67 43.024C195.67 42.136 195.208 41.692 194.284 41.692C193.372 41.692 192.916 42.136 192.916 43.024ZM200.948 41.026C201.584 40.198 202.646 39.784 204.134 39.784C205.622 39.784 206.684 40.198 207.32 41.026C207.956 41.842 208.274 42.994 208.274 44.482C208.274 47.638 206.894 49.216 204.134 49.216C201.374 49.216 199.994 47.638 199.994 44.482C199.994 42.994 200.312 41.842 200.948 41.026ZM202.802 46.516C203.054 46.948 203.498 47.164 204.134 47.164C204.77 47.164 205.208 46.948 205.448 46.516C205.7 46.084 205.826 45.406 205.826 44.482C205.826 43.558 205.7 42.886 205.448 42.466C205.208 42.046 204.77 41.836 204.134 41.836C203.498 41.836 203.054 42.046 202.802 42.466C202.562 42.886 202.442 43.558 202.442 44.482C202.442 45.406 202.562 46.084 202.802 46.516ZM210.042 49V40H212.436V40.954C213.444 40.354 214.404 39.964 215.316 39.784V42.214C214.344 42.418 213.51 42.628 212.814 42.844L212.454 42.97V49H210.042ZM223.633 42.808V46.552C223.657 46.84 223.705 47.044 223.777 47.164C223.849 47.272 223.999 47.35 224.227 47.398L224.155 49.216C223.543 49.216 223.051 49.174 222.679 49.09C222.319 49.006 221.953 48.838 221.581 48.586C220.717 49.006 219.835 49.216 218.935 49.216C217.075 49.216 216.145 48.232 216.145 46.264C216.145 45.304 216.403 44.626 216.919 44.23C217.435 43.822 218.227 43.582 219.295 43.51L221.221 43.366V42.808C221.221 42.436 221.137 42.184 220.969 42.052C220.801 41.908 220.531 41.836 220.159 41.836L216.775 41.98L216.703 40.306C217.987 39.958 219.205 39.784 220.357 39.784C221.521 39.784 222.355 40.024 222.859 40.504C223.375 40.984 223.633 41.752 223.633 42.808ZM219.583 45.184C218.911 45.244 218.575 45.604 218.575 46.264C218.575 46.924 218.869 47.254 219.457 47.254C219.913 47.254 220.411 47.182 220.951 47.038L221.221 46.966V45.04L219.583 45.184ZM226.04 49V46.102H228.632V49H226.04ZM226.274 44.5L226.04 36.76H228.65L228.398 44.5H226.274Z" fill="#06152E"/>
</g>
<defs>
<filter id="filter0_d_675_707" x="0.5" y="0" width="292" height="92" filterUnits="userSpaceOnUse" color-interpolation-filters="sRGB">
<feFlood flood-opacity="0" result="BackgroundImageFix"/>
<feColorMatrix in="SourceAlpha" type="matrix" values="0 0 0 0 0 0 0 0 0 0 0 0 0 0 0 0 0 0 127 0" result="hardAlpha"/>
<feOffset dy="4"/>
<feGaussianBlur stdDeviation="11"/>
<feComposite in2="hardAlpha" operator="out"/>
<feColorMatrix type="matrix" values="0 0 0 0 0 0 0 0 0 0 0 0 0 0 0 0 0 0 0.25 0"/>
<feBlend mode="normal" in2="BackgroundImageFix" result="effect1_dropShadow_675_707"/>
<feBlend mode="normal" in="SourceGraphic" in2="effect1_dropShadow_675_707" result="shape"/>
</filter>
</defs>
</svg>
