<svg width="18" height="18" viewBox="0 0 18 18" fill="none" xmlns="http://www.w3.org/2000/svg">
<g id="Icone">
<circle id="Ellipse" cx="9" cy="9" r="9" fill="black"/>
<path id="Duvida" fill-rule="evenodd" clip-rule="evenodd" d="M8.66156 5.00887C7.77036 5.10243 7.02435 5.49475 6.46958 6.16162C6.31276 6.35014 6.18252 6.53215 6.07695 6.71033C6.00082 6.83883 5.99564 6.85446 6.00194 6.93696C6.00599 6.98972 6.02181 7.04396 6.04104 7.07096C6.084 7.13125 7.17524 7.98942 7.23734 8.01174C7.3113 8.03833 7.39727 8.03251 7.4536 7.99709C7.48156 7.9795 7.57586 7.87589 7.66318 7.76684C7.90938 7.45932 8.20938 7.1601 8.33672 7.09499C8.50629 7.00831 8.67162 6.97182 8.9052 6.96951C9.25852 6.96602 9.51153 7.05777 9.73388 7.27007C9.8717 7.40165 9.92069 7.51191 9.91919 7.68721C9.91773 7.85738 9.86753 8.02601 9.78461 8.13927C9.69571 8.26069 9.53055 8.38003 9.23817 8.53407C8.83679 8.74553 8.61911 8.91073 8.35861 9.20153C8.18344 9.39707 8.10146 9.51378 8.01791 9.68662C7.89531 9.94019 7.87431 10.0478 7.87404 10.4243C7.87383 10.7264 7.87647 10.7566 7.90935 10.8263C7.92889 10.8678 7.96772 10.9244 7.99568 10.952L8.04647 11.0022L8.84535 11.0071C9.28473 11.0098 9.66814 11.0076 9.69736 11.0021C9.75859 10.9906 9.85426 10.9101 9.88903 10.8407C9.90216 10.8145 9.92295 10.7337 9.93524 10.6611C9.96267 10.4991 10.0004 10.4089 10.1155 10.2305C10.2492 10.0234 10.3812 9.90835 10.7352 9.69052C11.1597 9.42933 11.4487 9.18724 11.6288 8.942C11.7708 8.74869 11.9216 8.37877 11.977 8.08779C12.0112 7.90872 12.0063 7.42096 11.9687 7.24195C11.7763 6.32766 11.0312 5.53403 10.0278 5.17476C9.64934 5.03924 9.39687 4.99643 8.99871 5.00023C8.84453 5.0017 8.69283 5.00559 8.66156 5.00887ZM8.00195 11.4612C7.97414 11.4786 7.93394 11.5182 7.91261 11.549L7.87381 11.6051V12.5025V13.3999L7.91932 13.4614C8.00633 13.5791 7.96392 13.5745 8.92838 13.5694C9.77508 13.5649 9.79729 13.564 9.84201 13.5303C9.86723 13.5113 9.9043 13.4626 9.92441 13.4221C9.96089 13.3485 9.96095 13.3467 9.96095 12.5012C9.96095 11.656 9.96087 11.6539 9.92441 11.5795C9.9043 11.5385 9.86303 11.4879 9.83267 11.4671L9.77748 11.4293L8.91498 11.4293C8.09669 11.4294 8.04989 11.431 8.00195 11.4612Z" fill="#C9FE3C"/>
</g>
</svg>
