<svg width="1100" height="187" viewBox="0 0 1100 187" fill="none" xmlns="http://www.w3.org/2000/svg">
<path d="M230.044 137.704L256.24 122.518C256.724 122.239 257.26 122.063 257.815 121.998C258.37 121.934 258.932 121.983 259.467 122.143C260.002 122.303 260.499 122.57 260.928 122.928C261.357 123.286 261.708 123.727 261.96 124.226C268.134 135.955 278.279 143.589 295.4 143.589C313.652 143.589 318.22 136.387 318.22 129.905C318.22 119.616 308.61 115.501 283.382 108.525C258.154 101.549 233.995 89.5312 233.995 57.3475C233.995 25.1637 261.281 6.00571 290.358 6.00571C316.615 6.00571 337.44 17.9203 350.034 40.3296C350.58 41.2715 350.731 42.3916 350.453 43.4445C350.176 44.4975 349.492 45.3975 348.552 45.9473L323.241 60.7634C322.765 61.0429 322.238 61.2237 321.691 61.2952C321.143 61.3667 320.587 61.3273 320.055 61.1795C319.524 61.0317 319.027 60.7784 318.595 60.4347C318.163 60.091 317.805 59.6639 317.541 59.1789C311.924 49.4044 304.145 43.478 290.44 43.478C278.423 43.478 272.414 49.4867 272.414 56.2157C272.414 63.8912 276.53 69.1797 302.684 77.1228C328.159 84.7983 356.742 93.5851 356.742 129.247C356.66 161.78 330.711 180.918 294.206 180.918C260.561 180.918 238.461 165.731 228.336 142.89C227.938 141.966 227.892 140.928 228.207 139.973C228.521 139.017 229.175 138.21 230.044 137.704Z" fill="#F4F4F4"/>
<path d="M408.557 10.1214V176.802C408.557 177.894 408.124 178.94 407.352 179.712C406.58 180.484 405.533 180.918 404.442 180.918H372.69C371.598 180.918 370.552 180.484 369.78 179.712C369.008 178.94 368.574 177.894 368.574 176.802V10.1214C368.574 9.02991 369.008 7.9831 369.78 7.21128C370.552 6.43946 371.598 6.00586 372.69 6.00586H404.442C405.533 6.00586 406.58 6.43946 407.352 7.21128C408.124 7.9831 408.557 9.02991 408.557 10.1214Z" fill="#F4F4F4"/>
<path d="M594.272 98.3387C594.272 149.783 558.487 181 511.385 181C458.52 181 420.575 142.067 420.575 93.7704C420.5 82.186 422.734 70.7028 427.147 59.9913C431.559 49.2799 438.062 39.555 446.275 31.3845C454.487 23.214 464.245 16.7616 474.979 12.4042C485.713 8.04679 497.208 5.87167 508.792 6.00585C539.144 6.00585 565.011 20.184 579.868 40.7207C580.21 41.1896 580.45 41.7255 580.57 42.2934C580.691 42.8613 580.69 43.4483 580.567 44.0158C580.445 44.5833 580.204 45.1185 579.86 45.5862C579.516 46.0538 579.077 46.4435 578.571 46.7294L552.952 61.422C552.089 61.9105 551.08 62.0712 550.108 61.8746C549.136 61.678 548.268 61.1373 547.664 60.352C540.009 50.7215 525.913 43.5605 508.566 43.5605C480.209 43.5605 459.179 64.4676 459.179 94.0174C459.179 122.6 479.366 143.404 512.023 143.404C534.37 143.404 549.063 133.547 555.03 117.456H514.019C512.927 117.456 511.88 117.022 511.109 116.25C510.337 115.478 509.903 114.431 509.903 113.34V88.0498C509.903 86.9583 510.337 85.9115 511.109 85.1396C511.88 84.3678 512.927 83.9342 514.019 83.9342H590.157C591.248 83.9342 592.295 84.3678 593.067 85.1396C593.839 85.9115 594.272 86.9583 594.272 88.0498V98.3387Z" fill="#F4F4F4"/>
<path d="M605.323 93.5441C605.323 44.0338 642.075 6.0882 692.779 6.0882C721.588 6.0882 747.31 19.649 762.394 41.2763C762.718 41.7435 762.941 42.2726 763.051 42.8305C763.16 43.3884 763.152 43.9629 763.029 44.5178C762.905 45.0726 762.668 45.5958 762.332 46.0544C761.996 46.513 761.568 46.897 761.077 47.1822L735.087 62.2658C734.191 62.7784 733.136 62.936 732.13 62.7074C731.124 62.4787 730.24 61.8804 729.654 61.0311C721.793 50.0014 708.397 43.5605 692.779 43.5605C662.982 43.5605 643.762 63.5004 643.762 93.5441C643.762 123.588 662.982 143.507 692.779 143.507C708.356 143.507 721.937 137.087 729.675 126.078C730.261 125.223 731.148 124.621 732.159 124.392C733.17 124.163 734.23 124.324 735.128 124.843L761.097 139.906C761.588 140.19 762.014 140.571 762.35 141.028C762.686 141.484 762.925 142.004 763.05 142.557C763.176 143.109 763.186 143.682 763.08 144.238C762.974 144.795 762.754 145.324 762.435 145.791C747.557 167.419 721.855 180.918 692.779 180.918C642.075 180.918 605.323 143.034 605.323 93.5441Z" fill="#F4F4F4"/>
<path d="M774.37 93.4618C774.37 70.267 783.584 48.0223 799.985 31.6211C816.386 15.2199 838.631 6.00586 861.826 6.00586C885.02 6.00586 907.265 15.2199 923.666 31.6211C940.068 48.0223 949.282 70.267 949.282 93.4618C949.282 116.657 940.068 138.901 923.666 155.302C907.265 171.704 885.02 180.918 861.826 180.918C838.631 180.918 816.386 171.704 799.985 155.302C783.584 138.901 774.37 116.657 774.37 93.4618ZM910.822 93.4618C910.822 63.4181 889.215 43.4781 861.826 43.4781C834.437 43.4781 812.809 63.4181 812.809 93.4618C812.809 123.505 834.437 143.425 861.785 143.425C889.133 143.425 910.822 123.485 910.822 93.4618Z" fill="#F4F4F4"/>
<path d="M1099.44 10.1214V176.802C1099.44 177.894 1099 178.94 1098.23 179.712C1097.46 180.484 1096.41 180.918 1095.32 180.918H1071.68C1071.02 180.916 1070.37 180.756 1069.79 180.451C1069.21 180.147 1068.7 179.707 1068.32 179.169L1002.08 85.9509V176.802C1002.08 177.894 1001.65 178.94 1000.88 179.712C1000.11 180.484 999.06 180.918 997.969 180.918H966.114C965.023 180.918 963.976 180.484 963.204 179.712C962.432 178.94 961.999 177.894 961.999 176.802V10.1214C961.999 9.02991 962.432 7.9831 963.204 7.21128C963.976 6.43946 965.023 6.00586 966.114 6.00586H989.861C990.518 6.00561 991.165 6.16237 991.748 6.46307C992.332 6.76377 992.835 7.19967 993.215 7.7344L1059.46 100.952V10.1214C1059.46 9.02991 1059.89 7.9831 1060.66 7.21128C1061.43 6.43946 1062.48 6.00586 1063.57 6.00586H1095.32C1096.41 6.00586 1097.46 6.43946 1098.23 7.21128C1099 7.9831 1099.44 9.02991 1099.44 10.1214Z" fill="#F4F4F4"/>
<path fill-rule="evenodd" clip-rule="evenodd" d="M88 51.5C78.8373 51.5 69.8676 54.2366 62.2246 59.3817C54.5797 64.5279 48.5983 71.8586 45.0601 80.4642C41.5214 89.0712 40.5932 98.5507 42.3992 107.698C44.205 116.844 48.6586 125.225 55.1733 131.788C61.6865 138.35 69.9661 142.801 78.957 144.603C87.947 146.404 97.267 145.481 105.745 141.943C114.224 138.405 121.497 132.402 126.624 124.67C131.753 116.937 134.5 107.829 134.5 98.5H175.5C175.5 115.871 170.388 132.864 160.793 147.332C151.196 161.801 137.54 173.101 121.535 179.781C105.527 186.461 87.9044 188.211 70.9009 184.803C53.8983 181.396 38.3015 172.99 26.0744 160.671C13.8489 148.355 5.54027 132.681 2.17567 115.639C-1.18877 98.599 0.536646 80.9346 7.14007 64.8735C13.7441 48.8111 24.9378 35.0577 39.3291 25.3699C53.7222 15.681 70.6601 10.5 88 10.5V51.5Z" fill="#C9FE3C"/>
<path fill-rule="evenodd" clip-rule="evenodd" d="M115.698 45.0724C110.078 42.7105 104.066 41.4992 98.0026 41.5L97.9975 0.500001C109.531 0.498566 120.945 2.80357 131.585 7.27551C142.223 11.7472 151.87 18.2938 159.981 26.5264C168.092 34.7583 174.51 44.5149 178.883 55.2312C183.255 65.9469 185.501 77.4216 185.5 89.0025L144.5 88.9975C144.501 82.718 143.282 76.5068 140.922 70.7213C138.561 64.9363 135.108 59.6995 130.776 55.3022C126.444 50.9056 121.318 47.4346 115.698 45.0724Z" fill="#C9FE3C"/>
</svg>
